<?xml version="1.0" standalone="no"?>
<!DOCTYPE svg PUBLIC "-//W3C//DTD SVG 20010904//EN"
 "http://www.w3.org/TR/2001/REC-SVG-20010904/DTD/svg10.dtd">
<svg version="1.0" xmlns="http://www.w3.org/2000/svg"
 width="70.000000pt" height="70.000000pt" viewBox="0 0 70.000000 70.000000"
 preserveAspectRatio="xMidYMid meet">
<metadata>
Created by potrace 1.11, written by Peter Selinger 2001-2013
</metadata>
<g transform="translate(0.000000,70.000000) scale(0.100000,-0.100000)"
fill="#000000" stroke="none">
<path d="M0 550 l0 -150 119 0 c66 0 126 3 135 6 12 4 16 20 16 55 l0 49 -115
0 c-63 0 -115 4 -115 8 0 5 8 16 19 26 15 14 38 16 152 14 l134 -3 3 -97 3
-98 -176 0 c-149 0 -175 -2 -175 -15 0 -13 27 -15 184 -15 115 0 187 4 191 10
8 14 8 226 0 240 -4 6 -60 10 -143 10 l-137 0 31 30 c16 17 57 42 89 55 l60
25 -137 0 -138 0 0 -150z m245 -95 c0 -19 -8 -20 -109 -23 -112 -3 -131 2
-120 32 6 14 21 16 118 14 103 -3 111 -4 111 -23z"/>
<path d="M497 670 c75 -35 148 -106 179 -175 l23 -50 0 128 1 127 -132 0 -133
0 62 -30z"/>
<path d="M0 145 l0 -145 128 1 127 1 -45 21 c-52 25 -110 67 -110 79 0 4 63 8
140 8 l140 0 0 84 c0 67 -3 85 -16 90 -9 3 -94 6 -190 6 l-174 0 0 -145z m350
50 l0 -64 -141 2 c-134 2 -142 3 -157 25 l-14 22 96 0 c79 0 96 3 96 15 0 12
-18 15 -105 15 -58 0 -105 4 -105 9 0 5 -3 16 -6 25 -5 14 13 16 165 16 l171
0 0 -65z"/>
<path d="M676 205 c-24 -61 -93 -135 -163 -173 l-58 -31 123 -1 122 0 0 125
c0 69 -2 125 -4 125 -2 0 -11 -20 -20 -45z"/>
</g>
</svg>
