<?xml version="1.0" standalone="no"?>
<!DOCTYPE svg PUBLIC "-//W3C//DTD SVG 20010904//EN"
 "http://www.w3.org/TR/2001/REC-SVG-20010904/DTD/svg10.dtd">
<svg version="1.0" xmlns="http://www.w3.org/2000/svg"
 width="253.000000pt" height="253.000000pt" viewBox="0 0 253.000000 253.000000"
 preserveAspectRatio="xMidYMid meet">
<metadata>
Created by potrace 1.11, written by Peter Selinger 2001-2013
</metadata>
<g transform="translate(0.000000,253.000000) scale(0.100000,-0.100000)"
fill="#000000" stroke="none">
<path d="M1190 2524 c-214 -28 -320 -56 -459 -122 -234 -110 -454 -325 -580
-567 -41 -77 -111 -286 -116 -345 -3 -25 -8 -74 -11 -110 -4 -36 -9 -67 -13
-70 -9 -7 -6 -74 3 -89 5 -7 10 -33 11 -59 11 -146 16 -186 24 -196 13 -16 70
-183 64 -189 -6 -6 23 -62 43 -85 29 -32 107 -157 107 -172 0 -15 68 -98 75
-92 2 2 37 -27 78 -65 94 -85 203 -160 308 -212 75 -37 207 -85 266 -96 14 -3
36 -7 49 -10 95 -19 268 -25 371 -12 274 32 518 149 725 348 505 485 504 1301
-2 1790 -198 192 -464 318 -724 345 -66 7 -192 11 -219 8z"/>
</g>
</svg>
